<svg width="512" height="512" viewBox="0 0 512 512" fill="none" xmlns="http://www.w3.org/2000/svg">
<path d="M181.333 0H74.667C57.024 0 42.667 14.357 42.667 32V480C42.667 497.643 57.024 512 74.667 512H181.334C198.977 512 213.334 497.643 213.334 480V32C213.333 14.357 198.976 0 181.333 0Z" fill="white"/>
<path d="M437.333 0H330.667C313.024 0 298.667 14.357 298.667 32V480C298.667 497.643 313.024 512 330.667 512H437.334C454.977 512 469.334 497.643 469.334 480V32C469.333 14.357 454.976 0 437.333 0Z" fill="white"/>
</svg>
